<svg id="Layer_1" data-name="Layer 1" xmlns="http://www.w3.org/2000/svg" viewBox="0 0 253.37 50.47"><defs><style>.cls-1,.cls-2{fill:#fff;}.cls-2{fill-rule:evenodd;}</style></defs><title>MYLEN WHITE</title><path class="cls-1" d="M157.12,377.59v50.47h11.74v-32L180.59,423h8.64L201,396.09l.07,32h11.66V377.59h-14.4L184.91,407l-13.39-29.45Z" transform="translate(-157.12 -377.59)"/><path class="cls-1" d="M267.93,377.59H254.75l-11.66,21.67-12-21.67H218l18.58,34.7v15.77h13.18V411.93Z" transform="translate(-157.12 -377.59)"/><path class="cls-1" d="M273.18,377.59v50.47h34.56V416.83H286.36V377.59Z" transform="translate(-157.12 -377.59)"/><path class="cls-1" d="M363.76,377.59v50.47h12.31V397.82L399,428.06h11.52V377.59H398.25V408l-22.9-30.38Z" transform="translate(-157.12 -377.59)"/><path class="cls-2" d="M314.29,377.59h41.19v10.15H314.29Z" transform="translate(-157.12 -377.59)"/><path class="cls-2" d="M314.29,397.58h41.19V407.9H314.29Z" transform="translate(-157.12 -377.59)"/><path class="cls-2" d="M314.29,417.74h41.19v10.32H314.29Z" transform="translate(-157.12 -377.59)"/></svg>