<?xml version="1.0" encoding="UTF-8"?>
<svg width="255px" height="52px" viewBox="0 0 255 52" version="1.1" xmlns="http://www.w3.org/2000/svg" xmlns:xlink="http://www.w3.org/1999/xlink">
    <!-- Generator: Sketch 62 (91390) - https://sketch.com -->
    <title>logo</title>
    <desc>Created with Sketch.</desc>
    <g id="Page-1" stroke="none" stroke-width="1" fill="none" fill-rule="evenodd">
        <g id="logo" transform="translate(1.000000, 0.000000)" stroke="#979797">
            <polygon id="Path" fill-rule="nonzero" points="0 1 0 51.47 11.74 51.47 11.74 19.47 23.47 46.41 32.11 46.41 43.88 19.5 43.95 51.5 55.61 51.5 55.61 1 41.21 1 27.79 30.41 14.4 0.96"></polygon>
            <polygon id="Path" fill-rule="nonzero" points="110.81 1 97.63 1 85.97 22.67 73.97 1 60.88 1 79.46 35.7 79.46 51.47 92.64 51.47 92.64 35.34"></polygon>
            <polygon id="Path" fill-rule="nonzero" points="116.06 1 116.06 51.47 150.62 51.47 150.62 40.24 129.24 40.24 129.24 1"></polygon>
            <polygon id="Path" fill-rule="nonzero" points="206.64 1 206.64 51.47 218.95 51.47 218.95 21.23 241.88 51.47 253.4 51.47 253.4 1 241.13 1 241.13 31.41 218.23 1.03"></polygon>
            <polygon id="Path" points="157.17 1 198.36 1 198.36 11.15 157.17 11.15"></polygon>
            <polygon id="Path" points="157.17 20.99 198.36 20.99 198.36 31.31 157.17 31.31"></polygon>
            <polygon id="Path" points="157.17 41.15 198.36 41.15 198.36 51.47 157.17 51.47"></polygon>
        </g>
    </g>
</svg>